<?xml version="1.0" standalone="no"?>
<!DOCTYPE svg PUBLIC "-//W3C//DTD SVG 1.1//EN" "http://www.w3.org/Graphics/SVG/1.1/DTD/svg11.dtd" >
<svg xmlns="http://www.w3.org/2000/svg">
<metadata></metadata>
<defs>
<font id="old_letterpress_typeregular" horiz-adv-x="423" >
<font-face units-per-em="2048" ascent="1536" descent="-512" />
<missing-glyph horiz-adv-x="500" />
<glyph horiz-adv-x="0" />
<glyph horiz-adv-x="682" />
<glyph unicode="!" d="M61 0v301h301v-301h-301zM78 928v508h268v-508l-63 -537h-144z" />
<glyph unicode="&#x22;" horiz-adv-x="819" d="M61 872v150h152v111h-152v301h301v-418q0 -53 -39.5 -98.5t-103.5 -45.5h-158zM457 872v150h151v111h-151v301h301v-418q0 -53 -40 -98.5t-104 -45.5h-157z" />
<glyph unicode="$" horiz-adv-x="1093" d="M59 168l47 293h205v-166q25 -23 55.5 -37t65.5 -25v402q-53 18 -113.5 48t-111.5 77t-84 112.5t-33 157.5q0 106 27.5 182t75 126.5t110 77t129.5 34.5v127h164v-127q102 -10 194.5 -45t145.5 -76l-39 -252h-188v158q-18 16 -49 29.5t-64 19.5v-403q74 -31 148.5 -63 t137 -77t104.5 -110.5t46 -165.5q0 -184 -103.5 -298t-332.5 -132v-189h-164v189q-111 6 -182.5 28.5t-114.5 45.5q-51 27 -76 59zM328 1137q0 -86 22.5 -127t81.5 -68v332q-43 -16 -73.5 -50t-30.5 -87zM596 225q84 10 126 55.5t42 100.5t-42 111.5t-126 87.5v-355z" />
<glyph unicode="&#x26;" horiz-adv-x="1300" d="M66 227q-18 150 17.5 247t94 157.5t124 94.5t110.5 60q-72 121 -121 216.5t-49 142.5q0 98 55 165.5t138 102.5t180.5 37t180.5 -31t138 -99.5t55 -168.5q0 -127 -56 -216t-132 -153l119 -184q23 35 40 68.5t29 58.5l27 53h223v-209h-104q-29 -41 -54.5 -77.5 t-48.5 -71.5l129 -205h78v-231h-324v116q-12 12 -27.5 29.5t-33.5 40.5q-27 -90 -93.5 -143.5t-151.5 -75t-176 -11t-170 46.5t-133 97t-64 143zM378 433q-11 -54 1 -104t45 -81t86 -35t125 37q14 10 46 36.5t48 43.5q-45 61 -102.5 138t-104.5 146q-61 -29 -97 -78 t-47 -103zM556 1181.5q3 -26.5 19.5 -58t37 -62.5t41 -57.5t30.5 -42.5q37 2 58.5 50t18.5 104t-37 99t-106 35q-39 -4 -52 -22.5t-10 -45z" />
<glyph unicode="'" horiz-adv-x="362" d="M31 872v150h151v111h-151v301h301v-418q0 -53 -40 -98.5t-104 -45.5h-157z" />
<glyph unicode="," d="M61 0v301h301v-418q0 -53 -39.5 -98t-103.5 -45h-158v149h152v111h-152z" />
<glyph unicode="-" horiz-adv-x="628" d="M61 537v301h506v-301h-506z" />
<glyph unicode="." d="M61 0v301h301v-301h-301z" />
<glyph unicode="0" horiz-adv-x="1003" d="M61 719q0 154 36 288t96.5 233t141.5 156.5t171 57.5t170 -57.5t139 -156.5t93 -233.5t34 -287.5q0 -152 -34 -286t-93 -233.5t-139 -157.5t-170 -58t-171 58t-141.5 157.5t-96.5 233.5t-36 286zM344 727q0 -106 12.5 -200.5t34 -165t49 -111.5t58.5 -41q33 0 62.5 41 t51 111.5t34.5 165t13 200.5t-13 198.5t-34.5 161t-51.5 108.5t-62 40q-31 0 -58.5 -40t-49 -108.5t-34 -160.5t-12.5 -199z" />
<glyph unicode="1" horiz-adv-x="876" d="M61 0v201h234v964l-234 -41v185l369 125h150v-1233h235v-201h-754z" />
<glyph unicode="2" horiz-adv-x="1034" d="M61 0q0 147 43 267t109 220.5t141.5 184.5t141 158.5t108.5 143t43 138.5q0 82 -37 125t-81 40t-79.5 -55.5t-35.5 -160.5h-252l-25 190q39 72 116 120t169 69.5t190.5 14.5t178 -44t131 -105.5t51.5 -168.5q0 -98 -38 -176t-96.5 -147t-130 -129t-140 -121.5t-126 -127 t-88.5 -143.5h367v149h227v-442h-887z" />
<glyph unicode="3" horiz-adv-x="989" d="M61 113v299h267v-179q43 -49 97 -61t101 13.5t79 90t32 168.5q0 113 -28.5 171.5t-66.5 84t-76 27.5t-56 2v162q49 2 88 22q35 16 62.5 52t27.5 104q0 86 -34 124t-76 43t-75.5 -13.5t-33.5 -46.5v-140h-258v316q45 33 119.5 54t160.5 26.5t173 -8t158 -51.5t115 -100.5 t44 -156.5q0 -84 -31 -139t-68 -90q-43 -39 -96 -62q68 -6 121 -55q45 -41 83 -132t38 -257q0 -121 -47 -201t-124 -126t-172.5 -61.5t-191.5 -5t-184 43t-148 82.5z" />
<glyph unicode="4" horiz-adv-x="983" d="M61 442v230l607 762h131v-803h123v-189h-123v-254h123v-188h-508v188h114v254h-467zM274 631h254v319z" />
<glyph unicode="5" horiz-adv-x="974" d="M61 125v326h258v-150q49 -74 102.5 -86t97.5 17.5t73 94t29 148.5q0 80 -27 149.5t-71 103.5t-103.5 22.5t-124.5 -91.5l-166 68v707h717l-58 -312h-184v74h-285v-278q12 6 61.5 17t116 13t139.5 -12t135.5 -58t102 -127t39.5 -216q0 -131 -42 -233.5t-111.5 -172.5 t-158.5 -106.5t-184 -38.5t-187.5 32.5t-168.5 108.5z" />
<glyph unicode="6" horiz-adv-x="952" d="M61 693q0 79 3.5 152t3.5 130q0 106 34.5 192t93 147.5t134.5 97.5t155.5 41t159.5 -22.5t148 -93.5v-297h-213q-2 61 -13 111q-10 41 -32.5 76t-69.5 35q-53 0 -82 -35t-45 -76q-18 -49 -23 -111v-297q12 23 33 51.5t56.5 52t90 32.5t134.5 -5q66 -14 116 -57 t82.5 -103.5t48 -133t12.5 -147.5t-24.5 -146.5t-62.5 -128.5q-61 -86 -134 -129t-150 -46t-156.5 31.5t-153.5 102.5q-47 47 -76 113.5t-44 142.5t-20.5 158.5t-5.5 161.5zM373 432q0 -49 11 -93t30.5 -76t45 -50t52.5 -18q31 0 58.5 18t47 50t32 76t12.5 93t-12.5 93 t-32 77t-47 51.5t-58.5 18.5q-27 0 -52.5 -18.5t-45 -51.5t-30.5 -77t-11 -93z" />
<glyph unicode="7" horiz-adv-x="952" d="M61 1087v347h830v-70l-303 -1174h78v-190h-476v190h86l295 1061h-284v-164h-226z" />
<glyph unicode="8" horiz-adv-x="976" d="M61 428q0 74 20.5 140.5t58.5 120.5t90.5 94t117.5 63q-111 31 -182.5 111.5t-71.5 185.5q0 63 31 120.5t84 99.5t125 66.5t155 24.5q80 0 150 -24.5t122 -66.5t82.5 -99.5t30.5 -120.5q0 -104 -66 -185t-179 -112q61 -23 114.5 -63t91 -94t59 -120.5t21.5 -140.5 q0 -92 -34.5 -173t-93 -141.5t-135.5 -95t-163 -34.5q-90 0 -167.5 34.5t-135 95t-91.5 141.5t-34 173zM348 477q0 -113 42 -187.5t99 -74.5q27 0 52.5 19.5t45 55.5t31 84t11.5 103q0 51 -11.5 98.5t-31 81t-45 54t-52.5 20.5q-29 0 -54 -20.5t-44.5 -54t-31 -81 t-11.5 -98.5zM373 1102q0 -61 32.5 -109.5t83.5 -48.5q43 0 75 48t32 110q0 68 -32 110.5t-75 42.5q-51 0 -83.5 -43t-32.5 -110z" />
<glyph unicode="9" horiz-adv-x="950" d="M62.5 1004.5q3.5 74.5 25 146.5t62.5 129q61 86 133.5 128t149.5 45t157 -30.5t153 -101.5q47 -47 76 -113.5t44.5 -142.5t20.5 -159t5 -161.5t-3 -151.5t-3 -130q0 -106 -35 -192.5t-93.5 -148t-134 -97t-155.5 -40.5t-160 22.5t-147 92.5v297h213q-2 -61 10 -110 q10 -41 33.5 -76t70.5 -35q53 0 82 35t45 76q18 49 23 110v297q-12 -23 -32.5 -51.5t-56.5 -52t-90 -33.5t-134 6q-66 14 -116 57.5t-83 103.5t-48.5 133t-12 147.5zM289 1006q0 -49 12 -93.5t31.5 -77t47.5 -51t58 -18.5q27 0 52.5 18.5t45 51t31 76.5t11.5 94 q0 49 -11.5 93t-31 75.5t-45 50t-52.5 18.5q-31 0 -58.5 -18.5t-47 -50t-31.5 -75.5t-12 -93z" />
<glyph unicode=":" d="M61 0v301h301v-301h-301zM61 537v301h301v-301h-301z" />
<glyph unicode=";" d="M61 0h152v-111h-152v-149h158q63 0 103 45t40 98v418h-301v-301zM61 537v301h301v-301h-301z" />
<glyph unicode="?" horiz-adv-x="1077" d="M61 1090v231q33 37 93 65q51 25 135 46.5t211 21.5q254 0 385 -105.5t131 -291.5q0 -100 -40 -180t-106.5 -137.5t-155.5 -88t-188 -33.5l-45 -270h-129l-59 471q49 -25 117.5 -29t132 21t107.5 81t44 152q0 66 -26.5 112t-66.5 71.5t-87 32t-89 -11t-70.5 -56.5 t-30.5 -102h-263zM268 0v301h301v-301h-301z" />
<glyph unicode="A" horiz-adv-x="1353" d="M41 0v182h104l451 1252h231l383 -1252h103v-182h-510v182h112l-69 242h-424l-78 -242h102v-182h-405zM492 606h301l-138 486z" />
<glyph unicode="B" horiz-adv-x="1167" d="M68 0v182h102v1069h-102v183h630q106 0 191 -31q37 -12 70.5 -33.5t61.5 -53.5t44 -75t16 -100q0 -113 -40 -177.5t-87 -99.5q-55 -39 -127 -55v-6q25 -6 74 -26.5t96 -66.5t83 -124t36 -201t-40 -197.5t-94 -116.5t-109.5 -56.5t-88.5 -14.5h-716zM434 182h162 q66 6 119 35q45 25 83 76t38 145q0 145 -72 212t-193 67h-137v-535zM434 913h197q102 0 144 54.5t42 126.5q0 29 -10 56.5t-34.5 50t-65.5 36.5t-101 14h-172v-338z" />
<glyph unicode="C" horiz-adv-x="1060" d="M61 713q0 195 58.5 335t144.5 230t185.5 133t183.5 43q86 0 149.5 -15.5t104.5 -31.5q49 -20 82 -45l30 -315h-188l-86 192q-8 14 -20 25q-10 10 -29 17t-43 7q-12 0 -53 -17.5t-86 -76.5t-81 -173t-36 -308q0 -193 25.5 -298.5t63.5 -156.5t79 -62.5t71 -13.5q8 -1 16 0 q50 0 94 22q52 26 89 58q43 37 78 88l106 -119q-35 -72 -88 -127q-47 -48 -119 -86q-65 -35 -157 -34h-19q-115 2 -216 46t-175.5 132t-119 224t-44.5 327z" />
<glyph unicode="D" horiz-adv-x="1193" d="M68 0v180h100v1075h-100v181h473q45 -2 108.5 -17.5t132 -46.5t135 -81t118.5 -123.5t85 -172t33 -227.5q0 -207 -41 -351.5t-120 -235.5t-192.5 -135t-258.5 -46h-473zM430 178h76q41 2 105.5 22.5t126 82t105.5 177t44 308.5q0 162 -46 257t-109.5 145.5t-129 66.5 t-104.5 20h-68v-1079z" />
<glyph unicode="E" horiz-adv-x="1077" d="M68 0v180h98v1071h-98v183h866l41 -406h-174q0 68 -29 111t-69.5 66.5t-86 32.5t-79.5 13h-107v-403h297v-182h-297v-486h98q43 6 98.5 20.5t102.5 44t80 79t33 127.5h174l-41 -451h-907z" />
<glyph unicode="F" horiz-adv-x="1036" d="M68 0v180v2h98v1069h-98v183h866l41 -406h-174q0 68 -29 111t-69.5 66.5t-86 32.5t-79.5 13h-103v-403h293v-182h-293v-484h109v-182h-475z" />
<glyph unicode="G" horiz-adv-x="1118" d="M41 713q0 193 58.5 333t144.5 231t185 135t183 44q86 0 149.5 -15.5t104.5 -31.5q49 -20 82 -45l35 -317h-190l-88 196q-10 12 -23 21q-10 8 -27.5 14t-42.5 6q-12 0 -54 -17.5t-88 -75.5t-82 -172t-36 -306q0 -195 27 -300.5t65.5 -156.5t79.5 -62.5t72 -13.5 q31 0 64.5 7.5t60.5 25.5v367h-100v180h436v-180h-74v-351q-18 -70 -65 -123q-41 -47 -117 -84.5t-205 -37.5q-117 2 -217 45t-176 132t-119 225t-43 327z" />
<glyph unicode="H" horiz-adv-x="1251" d="M68 0v182h102v1069h-102v183h469v-183h-103v-387h383v387h-102v183h469v-183h-103v-1069h103v-182h-469v182h102v467h-383v-467h103v-182h-469z" />
<glyph unicode="I" horiz-adv-x="604" d="M68 0v182h102v1069h-102v183h469v-183h-103v-1069h103v-182h-469z" />
<glyph unicode="J" horiz-adv-x="1034" d="M61 168v377h273v-217q2 -41 16 -72q12 -29 38 -50.5t75 -21.5q51 0 75.5 47.5t34 104.5t9.5 108.5v59.5v737h-105v193h490v-193h-113v-889q-10 -102 -55 -184q-18 -35 -47 -67.5t-70 -59.5t-95.5 -42t-123.5 -15q-139 0 -219 28.5t-121 63.5q-49 39 -62 92z" />
<glyph unicode="K" horiz-adv-x="1288" d="M68 0v188h94v1065h-94v181h469v-181h-111v-393l451 393h-125v181h475v-181h-111l-299 -280l307 -785h103v-188h-484v188h74l-219 580l-172 -154v-426h111v-188h-469z" />
<glyph unicode="L" horiz-adv-x="1077" d="M68 0v180h98v1071h-98v183h469v-183h-107v-1071h98q43 6 98.5 20.5t102.5 44t80 79t33 127.5h174l-41 -451h-907z" />
<glyph unicode="M" horiz-adv-x="1521" d="M68 0v182h94v1071h-94v181h342l368 -848l309 848h367v-181h-102v-1071h102v-182h-461v180h94v688l-309 -868h-59l-369 868v-686h103v-182h-385z" />
<glyph unicode="N" horiz-adv-x="1206" d="M68 0v182h102v1071h-102v181h348l436 -701v518h-102v183h395v-183h-103v-1259q-2 -14 -8 -23q-5 -9 -11 -9q-7 0 -15 11q-121 184 -187.5 285.5t-97.5 148t-36 54.5l-5 8l-5 8t-36 54t-96.5 145.5t-186.5 283.5v-776h103v-182h-393z" />
<glyph unicode="O" horiz-adv-x="1245" d="M41 719q0 152 46 286t124 233t183.5 157.5t226.5 58.5t227 -58.5t185 -157.5t125 -233.5t46 -285.5q0 -152 -46 -286t-125 -234.5t-185.5 -157.5t-226.5 -57q-121 0 -226.5 57t-183.5 157.5t-124 234.5t-46 286zM336 719q0 -111 22.5 -206t60.5 -166t90.5 -111.5 t111.5 -40.5t111 40.5t92 111.5t62.5 166t22.5 206q0 109 -22.5 205t-62.5 166.5t-92 111.5t-111 41t-111.5 -41t-90.5 -111.5t-60.5 -167t-22.5 -204.5z" />
<glyph unicode="P" horiz-adv-x="1138" d="M68 0v182h94v1071h-94v181h649q80 0 149.5 -19.5t120.5 -60.5t81 -105.5t30 -154.5q0 -133 -30 -212t-81 -120t-120.5 -53.5t-149.5 -12.5h-291v-514h102v-182h-460zM426 895h223q66 0 111 27q44 26 66 66q21 38 21 82q-1 48 -27 90q-26 40 -74 66.5t-121 26.5h-199v-2 v-356z" />
<glyph unicode="Q" horiz-adv-x="1245" d="M41 719q0 154 46 287t125 233t184.5 157.5t226.5 57.5t226 -57.5t184 -157.5t125 -233.5t46 -286.5q0 -104 -21.5 -200.5t-61.5 -179.5t-95 -150.5t-123 -114.5q57 -66 133 -74q9 -1 18 -1q66 0 130 54l30 -26q-18 -72 -57 -125q-35 -47 -98.5 -85t-167.5 -38 q-59 0 -101 18.5t-71 48t-47.5 65.5t-28.5 73q-137 0 -247.5 62.5t-189.5 165.5t-122 235.5t-43 271.5zM336 719q0 -109 22.5 -205t61.5 -167t91 -111.5t112 -40.5q-2 29 -8.5 62.5t-20.5 66t-36.5 60.5t-57.5 42v20q34 11 64 11q14 0 28 -3q41 -8 72.5 -34.5t58.5 -65.5 t51 -82q63 72 99 189t36 258q0 109 -22.5 204t-61.5 166.5t-91 113.5t-111 42t-110.5 -42t-91.5 -113.5t-62.5 -166.5t-22.5 -204z" />
<glyph unicode="R" horiz-adv-x="1280" d="M68 0v182h94v1071h-94v181h651q80 0 149.5 -19.5t120.5 -60.5t80 -105.5t29 -154.5q0 -115 -21.5 -190t-61.5 -118t-94.5 -62t-117.5 -24l317 -516h119v-184h-328l-407 696h-78v-514h102v-182h-460zM426 895h223q66 0 111 27q44 26 66 66q21 38 21 82q-1 48 -27 90 q-26 40 -74 66.5t-121 26.5h-199v-2v-356z" />
<glyph unicode="S" horiz-adv-x="1107" d="M61 123l50 301h213v-170q31 -27 76.5 -45.5t97.5 -25.5q33 -4 65 -4q19 0 38 1q52 4 94 23.5t67.5 55.5t25.5 91t-19 91t-53 59.5t-77 39t-88 31.5q-47 14 -124 41t-150.5 76t-128 127t-54.5 199q0 147 50.5 239.5t130 139.5t177.5 57q39 4 79 4q59 0 117 -9 q97 -15 182 -49t139 -73l-41 -260h-197v162q-35 33 -99 48q-40 9 -82 9q-24 0 -48 -3q-66 -9 -114 -46t-48 -107q0 -72 15.5 -112.5t51 -66t95 -46t147.5 -51.5q88 -35 165 -72t133.5 -85t88 -111.5t31.5 -149.5q0 -104 -30.5 -187t-95 -141.5t-165 -89t-241.5 -30.5 t-232.5 21.5t-144.5 47.5q-63 31 -97 70z" />
<glyph unicode="T" horiz-adv-x="1206" d="M31 1028l41 406h1063l41 -406h-175q-2 111 -74.5 162t-187.5 61v-1069h109v-182h-486v182h109v1069q-43 -4 -90 -13t-86 -32.5t-64.5 -66.5t-25.5 -111h-174z" />
<glyph unicode="U" horiz-adv-x="1245" d="M66 1262v172h473v-172h-99v-842q0 -78 34 -129t84 -76q47 -24 103 -24q3 1 7 1q60 2 109.5 27t83.5 75t34 126v842h-90v172h375v-172h-99v-922q0 -111 -68.5 -190.5t-170.5 -121.5q-104 -42 -224 -44h-10q-114 0 -212 44q-102 46 -171 142t-69 250v842h-90z" />
<glyph unicode="V" horiz-adv-x="1353" d="M41 1251v183h510v-183h-113l258 -901h6l308 901h-103v183h406v-183h-105l-450 -1251h-232l-383 1251h-102z" />
<glyph unicode="W" horiz-adv-x="1509" d="M41 1251v183h498v-183h-95l129 -684l181 867h137l147 -867l146 684h-103v183h387v-183h-96l-239 -1251h-250l-129 645l-129 -645h-240l-242 1251h-102z" />
<glyph unicode="X" horiz-adv-x="1273" d="M31 0v178h84l374 543l-323 534h-92v179h491v-179h-67l186 -297l203 297h-60v179h383v-179h-86l-321 -483l356 -594h84v-178h-491v178h67l-219 357l-238 -357h50v-178h-381z" />
<glyph unicode="Y" horiz-adv-x="1259" d="M61 1255v179h492v-179h-68l187 -303l192 303h-49v179h383v-179h-86l-348 -483v-590h74v-182h-416v182h82v559l-330 514h-113z" />
<glyph unicode="Z" horiz-adv-x="1198" d="M61 0v68l687 1169h-332v-172h-256v369h977v-62l-670 -1165h407v223h259v-430h-1072z" />
<glyph unicode="_" horiz-adv-x="1085" d="M61 0v219h963v-219h-963z" />
<glyph unicode="a" horiz-adv-x="1353" d="M41 0v182h104l451 1252h231l383 -1252h103v-182h-510v182h112l-69 242h-424l-78 -242h102v-182h-405zM492 606h301l-138 486z" />
<glyph unicode="b" horiz-adv-x="1167" d="M68 0v182h102v1069h-102v183h630q106 0 191 -31q37 -12 70.5 -33.5t61.5 -53.5t44 -75t16 -100q0 -113 -40 -177.5t-87 -99.5q-55 -39 -127 -55v-6q25 -6 74 -26.5t96 -66.5t83 -124t36 -201t-40 -197.5t-94 -116.5t-109.5 -56.5t-88.5 -14.5h-716zM434 182h162 q66 6 119 35q45 25 83 76t38 145q0 145 -72 212t-193 67h-137v-535zM434 913h197q102 0 144 54.5t42 126.5q0 29 -10 56.5t-34.5 50t-65.5 36.5t-101 14h-172v-338z" />
<glyph unicode="c" horiz-adv-x="1060" d="M61 713q0 195 58.5 335t144.5 230t185.5 133t183.5 43q86 0 149.5 -15.5t104.5 -31.5q49 -20 82 -45l30 -315h-188l-86 192q-8 14 -20 25q-10 10 -29 17t-43 7q-12 0 -53 -17.5t-86 -76.5t-81 -173t-36 -308q0 -193 25.5 -298.5t63.5 -156.5t79 -62.5t71 -13.5q8 -1 16 0 q50 0 94 22q52 26 89 58q43 37 78 88l106 -119q-35 -72 -88 -127q-47 -48 -119 -86q-65 -35 -157 -34h-19q-115 2 -216 46t-175.5 132t-119 224t-44.5 327z" />
<glyph unicode="d" horiz-adv-x="1193" d="M68 0v180h100v1075h-100v181h473q45 -2 108.5 -17.5t132 -46.5t135 -81t118.5 -123.5t85 -172t33 -227.5q0 -207 -41 -351.5t-120 -235.5t-192.5 -135t-258.5 -46h-473zM430 178h76q41 2 105.5 22.5t126 82t105.5 177t44 308.5q0 162 -46 257t-109.5 145.5t-129 66.5 t-104.5 20h-68v-1079z" />
<glyph unicode="e" horiz-adv-x="1077" d="M68 0v180h98v1071h-98v183h866l41 -406h-174q0 68 -29 111t-69.5 66.5t-86 32.5t-79.5 13h-107v-403h297v-182h-297v-486h98q43 6 98.5 20.5t102.5 44t80 79t33 127.5h174l-41 -451h-907z" />
<glyph unicode="f" horiz-adv-x="1036" d="M68 0v180v2h98v1069h-98v183h866l41 -406h-174q0 68 -29 111t-69.5 66.5t-86 32.5t-79.5 13h-103v-403h293v-182h-293v-484h109v-182h-475z" />
<glyph unicode="g" horiz-adv-x="1118" d="M41 713q0 193 58.5 333t144.5 231t185 135t183 44q86 0 149.5 -15.5t104.5 -31.5q49 -20 82 -45l35 -317h-190l-88 196q-10 12 -23 21q-10 8 -27.5 14t-42.5 6q-12 0 -54 -17.5t-88 -75.5t-82 -172t-36 -306q0 -195 27 -300.5t65.5 -156.5t79.5 -62.5t72 -13.5 q31 0 64.5 7.5t60.5 25.5v367h-100v180h436v-180h-74v-351q-18 -70 -65 -123q-41 -47 -117 -84.5t-205 -37.5q-117 2 -217 45t-176 132t-119 225t-43 327z" />
<glyph unicode="h" horiz-adv-x="1251" d="M68 0v182h102v1069h-102v183h469v-183h-103v-387h383v387h-102v183h469v-183h-103v-1069h103v-182h-469v182h102v467h-383v-467h103v-182h-469z" />
<glyph unicode="i" horiz-adv-x="604" d="M68 0v182h102v1069h-102v183h469v-183h-103v-1069h103v-182h-469z" />
<glyph unicode="j" horiz-adv-x="1034" d="M61 168v377h273v-217q2 -41 16 -72q12 -29 38 -50.5t75 -21.5q51 0 75.5 47.5t34 104.5t9.5 108.5v59.5v737h-105v193h490v-193h-113v-889q-10 -102 -55 -184q-18 -35 -47 -67.5t-70 -59.5t-95.5 -42t-123.5 -15q-139 0 -219 28.5t-121 63.5q-49 39 -62 92z" />
<glyph unicode="k" horiz-adv-x="1288" d="M68 0v188h94v1065h-94v181h469v-181h-111v-393l451 393h-125v181h475v-181h-111l-299 -280l307 -785h103v-188h-484v188h74l-219 580l-172 -154v-426h111v-188h-469z" />
<glyph unicode="l" horiz-adv-x="1077" d="M68 0v180h98v1071h-98v183h469v-183h-107v-1071h98q43 6 98.5 20.5t102.5 44t80 79t33 127.5h174l-41 -451h-907z" />
<glyph unicode="m" horiz-adv-x="1521" d="M68 0v182h94v1071h-94v181h342l368 -848l309 848h367v-181h-102v-1071h102v-182h-461v180h94v688l-309 -868h-59l-369 868v-686h103v-182h-385z" />
<glyph unicode="n" horiz-adv-x="1206" d="M68 0v182h102v1071h-102v181h348l436 -701v518h-102v183h395v-183h-103v-1259q-2 -14 -8 -23q-5 -9 -11 -9q-7 0 -15 11q-121 184 -187.5 285.5t-97.5 148t-36 54.5l-5 8l-5 8t-36 54t-96.5 145.5t-186.5 283.5v-776h103v-182h-393z" />
<glyph unicode="o" horiz-adv-x="1245" d="M41 719q0 152 46 286t124 233t183.5 157.5t226.5 58.5t227 -58.5t185 -157.5t125 -233.5t46 -285.5q0 -152 -46 -286t-125 -234.5t-185.5 -157.5t-226.5 -57q-121 0 -226.5 57t-183.5 157.5t-124 234.5t-46 286zM336 719q0 -111 22.5 -206t60.5 -166t90.5 -111.5 t111.5 -40.5t111 40.5t92 111.5t62.5 166t22.5 206q0 109 -22.5 205t-62.5 166.5t-92 111.5t-111 41t-111.5 -41t-90.5 -111.5t-60.5 -167t-22.5 -204.5z" />
<glyph unicode="p" horiz-adv-x="1138" d="M68 0v182h94v1071h-94v181h649q80 0 149.5 -19.5t120.5 -60.5t81 -105.5t30 -154.5q0 -133 -30 -212t-81 -120t-120.5 -53.5t-149.5 -12.5h-291v-514h102v-182h-460zM426 895h223q66 0 111 26.5t66 66.5q21 38 21 82q0 48 -27 90q-25 40 -73.5 66.5t-121.5 26.5h-199v-2 v-356z" />
<glyph unicode="q" horiz-adv-x="1245" d="M41 719q0 154 46 287t125 233t184.5 157.5t226.5 57.5t226 -57.5t184 -157.5t125 -233.5t46 -286.5q0 -104 -21.5 -200.5t-61.5 -179.5t-95 -150.5t-123 -114.5q57 -66 133 -74q9 -1 18 -1q66 0 130 54l30 -26q-18 -72 -57 -125q-35 -47 -98.5 -85t-167.5 -38 q-59 0 -101 18.5t-71 48t-47.5 65.5t-28.5 73q-137 0 -247.5 62.5t-189.5 165.5t-122 235.5t-43 271.5zM336 719q0 -109 22.5 -205t61.5 -167t91 -111.5t112 -40.5q-2 29 -8.5 62.5t-20.5 66t-36.5 60.5t-57.5 42v20q34 11 64 11q14 0 28 -3q41 -8 72.5 -34.5t58.5 -65.5 t51 -82q63 72 99 189t36 258q0 109 -22.5 204t-61.5 166.5t-91 113.5t-111 42t-110.5 -42t-91.5 -113.5t-62.5 -166.5t-22.5 -204z" />
<glyph unicode="r" horiz-adv-x="1280" d="M68 0v182h94v1071h-94v181h651q80 0 149.5 -19.5t120.5 -60.5t80 -105.5t29 -154.5q0 -115 -21.5 -190t-61.5 -118t-94.5 -62t-117.5 -24l317 -516h119v-184h-328l-407 696h-78v-514h102v-182h-460zM426 895h223q66 0 111 27q44 26 66 66q21 38 21 82q-1 48 -27 90 q-26 40 -74 66.5t-121 26.5h-199v-2v-356z" />
<glyph unicode="s" horiz-adv-x="1107" d="M61 123l50 301h213v-170q31 -27 76.5 -45.5t97.5 -25.5q33 -4 65 -4q19 0 38 1q52 4 94 23.5t67.5 55.5t25.5 91t-19 91t-53 59.5t-77 39t-88 31.5q-47 14 -124 41t-150.5 76t-128 127t-54.5 199q0 147 50.5 239.5t130 139.5t177.5 57q39 4 79 4q59 0 117 -9 q97 -15 182 -49t139 -73l-41 -260h-197v162q-35 33 -99 48q-40 9 -82 9q-24 0 -48 -3q-66 -9 -114 -46t-48 -107q0 -72 15.5 -112.5t51 -66t95 -46t147.5 -51.5q88 -35 165 -72t133.5 -85t88 -111.5t31.5 -149.5q0 -104 -30.5 -187t-95 -141.5t-165 -89t-241.5 -30.5 t-232.5 21.5t-144.5 47.5q-63 31 -97 70z" />
<glyph unicode="t" horiz-adv-x="1206" d="M31 1028l41 406h1063l41 -406h-175q-2 111 -74.5 162t-187.5 61v-1069h109v-182h-486v182h109v1069q-43 -4 -90 -13t-86 -32.5t-64.5 -66.5t-25.5 -111h-174z" />
<glyph unicode="u" horiz-adv-x="1245" d="M66 1262v172h473v-172h-99v-842q0 -78 34 -129t84 -76q47 -24 103 -24q3 1 7 1q60 2 109.5 27t83.5 75t34 126v842h-90v172h375v-172h-99v-922q0 -111 -68.5 -190.5t-170.5 -121.5q-104 -42 -224 -44h-10q-114 0 -212 44q-102 46 -171 142t-69 250v842h-90z" />
<glyph unicode="v" horiz-adv-x="1353" d="M41 1251v183h510v-183h-113l258 -901h6l308 901h-103v183h406v-183h-105l-450 -1251h-232l-383 1251h-102z" />
<glyph unicode="w" horiz-adv-x="1509" d="M41 1251v183h498v-183h-95l129 -684l181 867h137l147 -867l146 684h-103v183h387v-183h-96l-239 -1251h-250l-129 645l-129 -645h-240l-242 1251h-102z" />
<glyph unicode="x" horiz-adv-x="1273" d="M31 0v178h84l374 543l-323 534h-92v179h491v-179h-67l186 -297l203 297h-60v179h383v-179h-86l-321 -483l356 -594h84v-178h-491v178h67l-219 357l-238 -357h50v-178h-381z" />
<glyph unicode="y" horiz-adv-x="1259" d="M61 1255v179h492v-179h-68l187 -303l192 303h-49v179h383v-179h-86l-348 -483v-590h74v-182h-416v182h82v559l-330 514h-113z" />
<glyph unicode="z" horiz-adv-x="1198" d="M61 0v68l687 1169h-332v-172h-256v369h977v-62l-670 -1165h407v223h259v-430h-1072z" />
<glyph unicode="&#xad;" horiz-adv-x="628" d="M61 537v301h506v-301h-506z" />
<glyph unicode="&#x2000;" horiz-adv-x="788" />
<glyph unicode="&#x2001;" horiz-adv-x="1577" />
<glyph unicode="&#x2002;" horiz-adv-x="788" />
<glyph unicode="&#x2003;" horiz-adv-x="1577" />
<glyph unicode="&#x2004;" horiz-adv-x="525" />
<glyph unicode="&#x2005;" horiz-adv-x="394" />
<glyph unicode="&#x2006;" horiz-adv-x="262" />
<glyph unicode="&#x2007;" horiz-adv-x="262" />
<glyph unicode="&#x2008;" horiz-adv-x="197" />
<glyph unicode="&#x2009;" horiz-adv-x="315" />
<glyph unicode="&#x200a;" horiz-adv-x="87" />
<glyph unicode="&#x2010;" horiz-adv-x="628" d="M61 537v301h506v-301h-506z" />
<glyph unicode="&#x2011;" horiz-adv-x="628" d="M61 537v301h506v-301h-506z" />
<glyph unicode="&#x2012;" horiz-adv-x="628" d="M61 537v301h506v-301h-506z" />
<glyph unicode="&#x2013;" horiz-adv-x="1146" d="M61 537v301h1024v-301h-1024z" />
<glyph unicode="&#x2014;" horiz-adv-x="2170" d="M61 537v301h2048v-301h-2048z" />
<glyph unicode="&#x2018;" d="M61 1016v418h301v-301h-151v-111h151v-150h-157q-63 0 -103.5 45.5t-40.5 98.5z" />
<glyph unicode="&#x2019;" d="M61 872v150h152v111h-152v301h301v-418q0 -53 -39.5 -98.5t-103.5 -45.5h-158z" />
<glyph unicode="&#x201c;" horiz-adv-x="821" d="M63 1016v418h302v-301h-152v-111h152v-150h-158q-63 0 -103.5 45.5t-40.5 98.5zM459 1016v418h301v-301h-152v-111h152v-150h-158q-63 0 -103 45.5t-40 98.5z" />
<glyph unicode="&#x201d;" horiz-adv-x="821" d="M63 872v150h152v111h-152v301h302v-418q0 -53 -40 -98.5t-104 -45.5h-158zM459 872v150h151v111h-151v301h301v-418q0 -53 -40 -98.5t-104 -45.5h-157z" />
<glyph unicode="&#x202f;" horiz-adv-x="315" />
<glyph unicode="&#x205f;" horiz-adv-x="394" />
<glyph unicode="&#x25fc;" horiz-adv-x="1433" d="M0 0v1434h1434v-1434h-1434z" />
</font>
</defs>
</svg>
